<svg width="18" height="22" viewBox="0 0 18 22" fill="none" xmlns="http://www.w3.org/2000/svg">
<path d="M16.2709 17H15.6819V9.03125C15.6819 5.72422 13.1225 2.99141 9.79257 2.53672V1.625C9.79257 1.10703 9.35333 0.6875 8.81101 0.6875C8.2687 0.6875 7.82946 1.10703 7.82946 1.625V2.53672C4.49952 2.99141 1.9401 5.72422 1.9401 9.03125V17H1.35117C0.916825 17 0.565918 17.3352 0.565918 17.75V18.5C0.565918 18.6031 0.654258 18.6875 0.76223 18.6875H6.06265C6.06265 20.1359 7.29451 21.3125 8.81101 21.3125C10.3275 21.3125 11.5594 20.1359 11.5594 18.6875H16.8598C16.9678 18.6875 17.0561 18.6031 17.0561 18.5V17.75C17.0561 17.3352 16.7052 17 16.2709 17ZM8.81101 19.8125C8.16073 19.8125 7.63314 19.3086 7.63314 18.6875H9.98889C9.98889 19.3086 9.4613 19.8125 8.81101 19.8125ZM3.70691 17V9.03125C3.70691 7.72813 4.23695 6.50469 5.20133 5.58359C6.16571 4.6625 7.44665 4.15625 8.81101 4.15625C10.1754 4.15625 11.4563 4.6625 12.4207 5.58359C13.3851 6.50469 13.9151 7.72813 13.9151 9.03125V17H3.70691Z" fill="white"/>
</svg>
