<svg width="23" height="22" viewBox="0 0 23 22" fill="none" xmlns="http://www.w3.org/2000/svg">
<path d="M9.94146 11C9.94146 11.2984 10.0656 11.5845 10.2865 11.7955C10.5073 12.0065 10.8069 12.125 11.1193 12.125C11.4317 12.125 11.7313 12.0065 11.9522 11.7955C12.1731 11.5845 12.2972 11.2984 12.2972 11C12.2972 10.7016 12.1731 10.4155 11.9522 10.2045C11.7313 9.99353 11.4317 9.875 11.1193 9.875C10.8069 9.875 10.5073 9.99353 10.2865 10.2045C10.0656 10.4155 9.94146 10.7016 9.94146 11ZM14.8493 11C14.8493 11.2984 14.9734 11.5845 15.1942 11.7955C15.4151 12.0065 15.7147 12.125 16.0271 12.125C16.3395 12.125 16.6391 12.0065 16.86 11.7955C17.0809 11.5845 17.205 11.2984 17.205 11C17.205 10.7016 17.0809 10.4155 16.86 10.2045C16.6391 9.99353 16.3395 9.875 16.0271 9.875C15.7147 9.875 15.4151 9.99353 15.1942 10.2045C14.9734 10.4155 14.8493 10.7016 14.8493 11ZM5.03367 11C5.03367 11.2984 5.15776 11.5845 5.37866 11.7955C5.59955 12.0065 5.89915 12.125 6.21154 12.125C6.52393 12.125 6.82353 12.0065 7.04442 11.7955C7.26531 11.5845 7.38941 11.2984 7.38941 11C7.38941 10.7016 7.26531 10.4155 7.04442 10.2045C6.82353 9.99353 6.52393 9.875 6.21154 9.875C5.89915 9.875 5.59955 9.99353 5.37866 10.2045C5.15776 10.4155 5.03367 10.7016 5.03367 11ZM21.2588 6.93125C20.7043 5.67266 19.9092 4.54297 18.8957 3.57266C17.8894 2.60796 16.6947 1.84114 15.3793 1.31563C14.0297 0.774219 12.5966 0.5 11.1193 0.5H11.0703C9.58319 0.507031 8.14276 0.788281 6.7882 1.34141C5.4841 1.87232 4.3006 2.64049 3.30367 3.60312C2.30002 4.57109 1.51232 5.69609 0.967559 6.95C0.403162 8.24844 0.11851 9.62891 0.125872 11.0492C0.134198 12.6769 0.53737 14.2806 1.30374 15.7344V19.2969C1.30374 19.5828 1.42267 19.857 1.63436 20.0592C1.84605 20.2614 2.13316 20.375 2.43254 20.375H6.16491C7.68705 21.107 9.3661 21.492 11.0703 21.5H11.1218C12.5917 21.5 14.0174 21.2281 15.3597 20.6961C16.6684 20.1768 17.8586 19.419 18.8638 18.4648C19.8773 17.5062 20.6748 16.3859 21.2318 15.1367C21.811 13.843 22.1054 12.4672 22.1128 11.0469C22.1202 9.61953 21.8306 8.23437 21.2588 6.93125ZM17.551 17.1969C15.8308 18.8234 13.5487 19.7188 11.1193 19.7188H11.0776C9.59792 19.7117 8.12803 19.3602 6.82992 18.6992L6.62379 18.5938H3.1687V15.2938L3.05828 15.0969C2.36628 13.857 1.9982 12.4531 1.99083 11.0398C1.98102 8.70313 2.91595 6.50937 4.63123 4.85703C6.34405 3.20469 8.63353 2.29063 11.0801 2.28125H11.1218C12.3487 2.28125 13.5389 2.50859 14.6603 2.95859C15.7547 3.39687 16.7363 4.02734 17.5804 4.83359C18.4221 5.6375 19.0847 6.57734 19.5436 7.62266C20.0196 8.70547 20.2576 9.85391 20.2527 11.0398C20.238 13.3742 19.2785 15.5609 17.551 17.1969Z" fill="#002766"/>
</svg>
