<svg width="22" height="22" viewBox="0 0 22 22" fill="none" xmlns="http://www.w3.org/2000/svg">
<path d="M10.8521 0.5C4.92568 0.5 0.120361 5.3135 0.120361 11.25C0.120361 17.1865 4.92568 22 10.8521 22C16.7785 22 21.5838 17.1865 21.5838 11.25C21.5838 5.3135 16.7785 0.5 10.8521 0.5ZM10.8521 20.1763C5.93178 20.1763 1.94092 16.1787 1.94092 11.25C1.94092 6.32132 5.93178 2.32366 10.8521 2.32366C15.7724 2.32366 19.7632 6.32132 19.7632 11.25C19.7632 16.1787 15.7724 20.1763 10.8521 20.1763Z" fill="#002766"/>
<path d="M9.70227 7.02679C9.70227 7.33226 9.82341 7.62522 10.039 7.84122C10.2547 8.05722 10.5471 8.17857 10.8521 8.17857C11.157 8.17857 11.4495 8.05722 11.6651 7.84122C11.8808 7.62522 12.0019 7.33226 12.0019 7.02679C12.0019 6.72131 11.8808 6.42835 11.6651 6.21235C11.4495 5.99635 11.157 5.875 10.8521 5.875C10.5471 5.875 10.2547 5.99635 10.039 6.21235C9.82341 6.42835 9.70227 6.72131 9.70227 7.02679V7.02679ZM11.427 9.71429H10.2772C10.1718 9.71429 10.0855 9.80067 10.0855 9.90625V16.433C10.0855 16.5386 10.1718 16.625 10.2772 16.625H11.427C11.5324 16.625 11.6186 16.5386 11.6186 16.433V9.90625C11.6186 9.80067 11.5324 9.71429 11.427 9.71429Z" fill="#002766"/>
</svg>
