<svg width="20" height="20" viewBox="0 0 20 20" fill="none" xmlns="http://www.w3.org/2000/svg">
<path d="M19.7519 16.0937H17.7888V14.2187C17.7888 14.1156 17.7005 14.0312 17.5925 14.0312H16.4146C16.3067 14.0312 16.2183 14.1156 16.2183 14.2187V16.0937H14.2552C14.1472 16.0937 14.0589 16.1781 14.0589 16.2812V17.4062C14.0589 17.5093 14.1472 17.5937 14.2552 17.5937H16.2183V19.4687C16.2183 19.5718 16.3067 19.6562 16.4146 19.6562H17.5925C17.7005 19.6562 17.7888 19.5718 17.7888 19.4687V17.5937H19.7519C19.8599 17.5937 19.9482 17.5093 19.9482 17.4062V16.2812C19.9482 16.1781 19.8599 16.0937 19.7519 16.0937ZM7.02847 9.68122C7.00638 9.47731 6.99411 9.27106 6.99411 9.06247C6.99411 8.68981 7.03092 8.32653 7.09963 7.97263C7.11681 7.88825 7.07018 7.80153 6.98921 7.76638C6.65548 7.62341 6.34874 7.42653 6.08372 7.1781C5.77143 6.88889 5.5257 6.54069 5.36219 6.15571C5.19867 5.77073 5.12098 5.35742 5.13406 4.94216C5.15614 4.18981 5.4727 3.47497 6.02482 2.93591C6.63094 2.34294 7.44563 2.0195 8.31186 2.02888C9.09465 2.03591 9.85045 2.32419 10.4222 2.83513C10.6161 3.00856 10.7829 3.20075 10.9228 3.407C10.9719 3.47966 11.0676 3.51013 11.151 3.482C11.5829 3.33903 12.0393 3.23825 12.508 3.19138C12.6454 3.17731 12.724 3.03669 12.6626 2.9195C11.8651 1.41247 10.2357 0.371845 8.35112 0.34372C5.6322 0.303876 3.3648 2.43435 3.3648 5.03122C3.3648 6.5031 4.07398 7.8156 5.18559 8.67575C4.40525 9.02028 3.68626 9.49606 3.06297 10.0914C1.71823 11.3734 0.957526 13.0656 0.908448 14.8726C0.907793 14.8976 0.912387 14.9225 0.921959 14.9458C0.93153 14.9691 0.945887 14.9903 0.964182 15.0082C0.982477 15.0262 1.00434 15.0404 1.02848 15.0501C1.05263 15.0598 1.07856 15.0648 1.10476 15.0648H2.4814C2.58691 15.0648 2.67525 14.9851 2.67771 14.8843C2.72433 13.525 3.301 12.2523 4.31446 11.2867C5.0359 10.5976 5.91931 10.1195 6.88369 9.88747C6.97694 9.86169 7.04074 9.77497 7.02847 9.68122V9.68122ZM18.0833 9.06247C18.0833 6.49841 15.9263 4.41481 13.2516 4.37497C10.5326 4.33513 8.26769 6.4656 8.26769 9.06247C8.26769 10.5343 8.97932 11.8468 10.0885 12.707C9.30006 13.0561 8.58233 13.5353 7.96831 14.1226C6.62357 15.4047 5.86287 17.0968 5.81379 18.9015C5.81313 18.9265 5.81773 18.9514 5.8273 18.9747C5.83687 18.998 5.85123 19.0192 5.86952 19.0372C5.88782 19.0551 5.90968 19.0693 5.93382 19.079C5.95797 19.0887 5.9839 19.0937 6.0101 19.0937H7.38428C7.4898 19.0937 7.57814 19.014 7.5806 18.9133C7.62722 17.5539 8.20389 16.2812 9.21735 15.3156C10.275 14.3054 11.6786 13.75 13.1755 13.75C15.8846 13.75 18.0833 11.6523 18.0833 9.06247ZM15.3963 11.1836C14.8024 11.7508 14.0147 12.0625 13.1755 12.0625C12.3362 12.0625 11.5485 11.7508 10.9547 11.1836C10.6584 10.902 10.4242 10.5665 10.2662 10.1969C10.1081 9.82733 10.0293 9.4312 10.0345 9.032C10.0419 8.26325 10.3633 7.52028 10.9253 6.9695C11.5142 6.39294 12.3019 6.07185 13.1436 6.06247C13.9755 6.05544 14.7828 6.36481 15.3766 6.92028C15.9852 7.48981 16.3189 8.25153 16.3189 9.06247C16.3165 9.86403 15.9901 10.6164 15.3963 11.1836V11.1836Z" fill="#002766"/>
</svg>
